<svg viewBox="0 0 27.1509 18.1006" xmlns="http://www.w3.org/2000/svg" xmlns:xlink="http://www.w3.org/1999/xlink" width="27.150879" height="18.100586" fill="none" customFrame="#000000">
	<g id="Icon 3">
		<path id="Icon01" d="M23.757 7.24024L23.757 3.62012L22.0601 3.62012L22.0601 7.24024L18.6662 7.24024L18.6662 9.0503L22.0601 9.0503L22.0601 12.6704L23.757 12.6704L23.757 9.0503L27.1509 9.0503L27.1509 7.24024L23.757 7.24024ZM8.48465 7.24024L8.48465 10.8604L13.2849 10.8604C12.9328 11.9184 12.2824 12.8342 11.423 13.4824C10.5635 14.1305 9.53718 14.4791 8.48465 14.4805C7.13504 14.4786 5.84122 13.9058 4.8869 12.8879C3.93258 11.87 3.39566 10.4899 3.39386 9.0503C3.39566 7.61071 3.93258 6.23064 4.8869 5.2127C5.84122 4.19476 7.13504 3.62204 8.48465 3.62012C9.70101 3.62012 10.8726 4.08495 11.7821 4.9306L14.0099 2.20104C12.4777 0.779852 10.5151 -0.0019529 8.48465 3.66354e-06C6.23516 0.00268656 4.07851 0.957059 2.48788 2.65374C0.897239 4.35042 0.00251521 6.65083 0 9.0503C0.00251521 11.4498 0.897239 13.7502 2.48788 15.4469C4.07851 17.1435 6.23516 18.0979 8.48465 18.1006C10.7342 18.0979 12.8908 17.1435 14.4814 15.4469C16.0721 13.7502 16.9668 11.4498 16.9693 9.0503L16.9693 7.24024L8.48465 7.24024Z" fill="rgb(255,255,255)" fill-rule="nonzero" />
	</g>
</svg>
