<svg viewBox="0 0 15.6323 20.5688" xmlns="http://www.w3.org/2000/svg" xmlns:xlink="http://www.w3.org/1999/xlink" width="15.632324" height="20.568848" fill="none" customFrame="#000000">
	<g id="Icon 4">
		<path id="Icon02" d="M6.42639 13.6041C5.89765 16.4357 5.25397 19.151 3.34382 20.5689C2.75551 16.2892 4.21007 13.0743 4.88511 9.66207C3.73358 7.67807 5.02408 3.68411 7.45253 4.66779C10.4411 5.87897 4.86421 12.0449 8.60823 12.8157C12.5174 13.6197 14.114 5.87377 11.6898 3.35379C8.18712 -0.282851 1.49427 3.27172 2.31768 8.47894C2.51831 9.75244 3.80255 10.1388 2.83075 11.8964C0.589352 11.3864 -0.0794104 9.57689 0.00731967 7.16389C0.145252 3.21667 3.47339 0.45154 6.81093 0.0692829C11.0325 -0.414771 14.9939 1.65544 15.5404 5.72004C16.1569 10.3071 13.6354 15.2765 9.12234 14.9181C7.89872 14.8215 7.3846 14.2014 6.42639 13.6041Z" fill="rgb(255,255,255)" fill-rule="nonzero" />
	</g>
</svg>
