<svg viewBox="0 0 23.8599 19.7461" xmlns="http://www.w3.org/2000/svg" xmlns:xlink="http://www.w3.org/1999/xlink" width="23.859863" height="19.746094" fill="none" customFrame="#000000">
	<g id="Icon 2">
		<path id="Icon04" d="M23.8599 2.335C22.9656 2.73903 22.0184 3.00395 21.0492 3.12114C22.0665 2.50313 22.8316 1.52308 23.2013 0.364101C22.2374 0.944547 21.1861 1.35338 20.0912 1.57355C19.6302 1.07398 19.0756 0.676814 18.4613 0.406282C17.847 0.13575 17.1858 -0.00247733 16.5182 3.36045e-05C13.8149 3.36045e-05 11.6233 2.23381 11.6233 4.98591C11.6233 5.3759 11.6663 5.75724 11.7498 6.12131C9.81068 6.02591 7.91207 5.51339 6.17514 4.61646C4.4382 3.71954 2.90107 2.4579 1.66184 0.912055C1.22738 1.6703 0.999031 2.5359 1.00092 3.41734C1.00175 4.24169 1.20114 5.05284 1.58106 5.77747C1.96099 6.50211 2.50947 7.11739 3.17694 7.56771C2.40088 7.54179 1.64158 7.32746 0.96036 6.94201L0.96036 7.00371C0.96036 9.42014 2.64845 11.4355 4.88531 11.8946C4.46491 12.01 4.03182 12.0684 3.59688 12.0686C3.28073 12.0686 2.97413 12.0377 2.67469 11.976C2.99451 12.9731 3.60655 13.8424 4.42579 14.4632C5.24503 15.084 6.23082 15.4255 7.24624 15.4402C5.50455 16.8281 3.36641 17.5778 1.16794 17.5716C0.771867 17.5716 0.382951 17.5469 0 17.5024C2.24432 18.9719 4.84665 19.7501 7.50274 19.7461C16.5063 19.7461 21.4286 12.1476 21.4286 5.55855L21.4119 4.9131C22.372 4.21418 23.2015 3.34063 23.8599 2.335Z" fill="rgb(255,255,255)" fill-rule="nonzero" />
	</g>
</svg>
